<?xml version="1.0" encoding="UTF-8"?>
<svg id="Camada_2" data-name="Camada 2" xmlns="http://www.w3.org/2000/svg" viewBox="0 0 6000 3087.43">
  <defs>
    <style>
      .cls-1 {
        fill: #f39321;
        stroke-width: 0px;
      }
    </style>
  </defs>
  <g id="Camada_1-2" data-name="Camada 1">
    <g>
      <path class="cls-1" d="M2681.21,2.33c-8.06,108.88-15.36,206.8-23.87,321.61h-540.28v343.51c211.98-41.66,239.5,68.73,236.15,234.18-8.06,410.72-2.58,821.59-2.58,1232.32,0,154.95,0,218.51-48.51,257.29-216.39-211.82-432.31-423.49-645.81-637.9-107.36-107.66-216.23-159.06-370.73-155.1-386.09,9.58-772.48,3.5-1158.72,2.13-44.86-.15-105.38,14.6-124.08-39.54-15.05-43.19,34.52-71.47,62.8-100.36C511.13,1005.49,958.35,552.04,1402.37,95.7,1470.04,26.05,1544.55-1.32,1639.13.05c208.78,3.34,417.56,1.06,626.35,1.06,138.68,0,277.21,1.98,415.74,1.22Z"/>
      <path class="cls-1" d="M3230.46,307.67h-216.08V27.72c43.34,19.46,82.57,49.42,120.43,90.17,33.3,35.73,66.6,71.62,100.21,107.2-1.67,27.98-3.04,55.5-4.56,82.57Z"/>
      <path class="cls-1" d="M3250.38,3086.16h23.87c-34.52.3-69.04.76-103.55,1.22-51.7.76-97.02-6.39-138.38-21.9v-299.72h198.44c6.84,112.68,13.38,217.75,19.62,320.4Z"/>
      <path class="cls-1" d="M2908.85,1276.31v-556.09c146.74,0,276.91-5.93,406.46,1.52,168.94,9.88,272.95,128.95,265.96,290.13-6.54,152.67-114.66,259.27-274.62,263.68-129.1,3.65-258.51.76-397.8.76Z"/>
      <path class="cls-1" d="M3629.32,2042.1c-17.49,164.99-150.24,288.77-321.31,293.78-113.74,3.5-227.64.61-341.53-.61-15.97-.3-31.78-7.45-59.15-14.29v-632.12c160.12,0,313.4-15.21,462.27,4.11,164.99,21.29,276.75,189.77,259.72,349.13Z"/>
      <path class="cls-1" d="M5923.19,1702.69c-445.7,432.62-893.37,863.26-1338.3,1296.64-64.78,63.11-134.73,87.74-224.14,87.13-258.05-1.98-516.25-3.34-774.45-2.58v-316.29c297.89-52.77,513.21-182.17,576.47-479.6,72.08-339.71-14.6-617.83-350.81-793.31,37.26-25.55,59.15-42.88,83.33-56.57,107.2-61.28,179.13-163.77,216.39-280.71,74.36,79.83,148.41,159.82,222.16,240.26,107.51,117.39,217.45,170.92,379.09,166.21,380.61-11.1,761.99-4.41,1143.05-2.43,48.51.15,116.63-26,140.2,32.08,19.62,48.66-41.06,78.16-72.99,109.18Z"/>
    </g>
  </g>
</svg>